<!-- GENERATED FILE - do not edit. Regenerate every figure and page with:
     dotnet run ––project tools/DocGen –– ––out docs/user
     (the flags above are ordinary double hyphens; XML comments cannot contain them.)
     Source: src/Ui/Diagnostics/UiArtworkGenerator.cs + tools/DocGen. -->
<svg xmlns="http://www.w3.org/2000/svg" xmlns:xlink="http://www.w3.org/1999/xlink" width="520" height="420" viewBox="0 0 520 420"><defs><path id="analyses-setup-dark_d0" d="M9 4.5Q9 4.61 8.99 4.72Q8.99 4.83 8.98 4.94Q8.97 5.05 8.95 5.16Q8.94 5.27 8.91 5.38Q8.89 5.49 8.87 5.59Q8.84 5.7 8.81 5.81Q8.77 5.91 8.74 6.02Q8.7 6.12 8.66 6.22Q8.62 6.32 8.57 6.42Q8.52 6.52 8.47 6.62Q8.42 6.72 8.36 6.81Q8.3 6.91 8.24 7Q8.18 7.09 8.11 7.18Q8.05 7.27 7.98 7.35Q7.91 7.44 7.83 7.52Q7.76 7.6 7.68 7.68Q7.6 7.76 7.52 7.83Q7.44 7.91 7.35 7.98Q7.27 8.05 7.18 8.11Q7.09 8.18 7 8.24Q6.91 8.3 6.81 8.36Q6.72 8.42 6.62 8.47Q6.52 8.52 6.42 8.57Q6.32 8.62 6.22 8.66Q6.12 8.7 6.02 8.74Q5.91 8.77 5.81 8.81Q5.7 8.84 5.59 8.87Q5.49 8.89 5.38 8.91Q5.27 8.94 5.16 8.95Q5.05 8.97 4.94 8.98Q4.83 8.99 4.72 8.99Q4.61 9 4.5 9Q4.39 9 4.28 8.99Q4.17 8.99 4.06 8.98Q3.95 8.97 3.84 8.95Q3.73 8.94 3.62 8.91Q3.51 8.89 3.41 8.87Q3.3 8.84 3.19 8.81Q3.09 8.77 2.98 8.74Q2.88 8.7 2.78 8.66Q2.68 8.62 2.58 8.57Q2.48 8.52 2.38 8.47Q2.28 8.42 2.19 8.36Q2.09 8.3 2 8.24Q1.91 8.18 1.82 8.11Q1.73 8.05 1.65 7.98Q1.56 7.91 1.48 7.83Q1.4 7.76 1.32 7.68Q1.24 7.6 1.17 7.52Q1.09 7.44 1.02 7.35Q0.9514 7.27 0.8856 7.18Q0.8198 7.09 0.7584 7Q0.697 6.91 0.6402 6.81Q0.5834 6.72 0.5314 6.62Q0.4793 6.52 0.432 6.42Q0.3848 6.32 0.3425 6.22Q0.3003 6.12 0.2631 6.02Q0.2258 5.91 0.1938 5.81Q0.1617 5.7 0.1349 5.59Q0.108 5.49 0.08647 5.38Q0.06491 5.27 0.04871 5.16Q0.0325 5.05 0.02167 4.94Q0.01084 4.83 0.00542 4.72Q0 4.61 0 4.5Q0 4.39 0.00542 4.28Q0.01084 4.17 0.02167 4.06Q0.0325 3.95 0.04871 3.84Q0.06491 3.73 0.08647 3.62Q0.108 3.51 0.1349 3.41Q0.1617 3.3 0.1938 3.19Q0.2258 3.09 0.2631 2.98Q0.3003 2.88 0.3425 2.78Q0.3848 2.68 0.432 2.58Q0.4793 2.48 0.5314 2.38Q0.5834 2.28 0.6402 2.19Q0.697 2.09 0.7584 2Q0.8198 1.91 0.8856 1.82Q0.9514 1.73 1.02 1.65Q1.09 1.56 1.17 1.48Q1.24 1.4 1.32 1.32Q1.4 1.24 1.48 1.17Q1.56 1.09 1.65 1.02Q1.73 0.9514 1.82 0.8856Q1.91 0.8198 2 0.7584Q2.09 0.697 2.19 0.6402Q2.28 0.5834 2.38 0.5314Q2.48 0.4793 2.58 0.432Q2.68 0.3848 2.78 0.3425Q2.88 0.3003 2.98 0.2631Q3.09 0.2258 3.19 0.1938Q3.3 0.1617 3.41 0.1349Q3.51 0.108 3.62 0.08647Q3.73 0.06491 3.84 0.04871Q3.95 0.0325 4.06 0.02167Q4.17 0.01084 4.28 0.00542Q4.39 0 4.5 0Q4.61 0 4.72 0.00542Q4.83 0.01084 4.94 0.02167Q5.05 0.0325 5.16 0.04871Q5.27 0.06491 5.38 0.08647Q5.49 0.108 5.59 0.1349Q5.7 0.1617 5.81 0.1938Q5.91 0.2258 6.02 0.2631Q6.12 0.3003 6.22 0.3425Q6.32 0.3848 6.42 0.432Q6.52 0.4793 6.62 0.5314Q6.72 0.5834 6.81 0.6402Q6.91 0.697 7 0.7584Q7.09 0.8198 7.18 0.8856Q7.27 0.9514 7.35 1.02Q7.44 1.09 7.52 1.17Q7.6 1.24 7.68 1.32Q7.76 1.4 7.83 1.48Q7.91 1.56 7.98 1.65Q8.05 1.73 8.11 1.82Q8.18 1.91 8.24 2Q8.3 2.09 8.36 2.19Q8.42 2.28 8.47 2.38Q8.52 2.48 8.57 2.58Q8.62 2.68 8.66 2.78Q8.7 2.88 8.74 2.98Q8.77 3.09 8.81 3.19Q8.84 3.3 8.87 3.41Q8.89 3.51 8.91 3.62Q8.94 3.73 8.95 3.84Q8.97 3.95 8.98 4.06Q8.99 4.17 8.99 4.28Q9 4.39 9 4.5Z" /><path id="analyses-setup-dark_d1" d="M0 15L0 3Q0 2.85 0.01445 2.71Q0.02889 2.56 0.05764 2.41Q0.0864 2.27 0.1292 2.13Q0.172 1.99 0.2284 1.85Q0.2848 1.72 0.3542 1.59Q0.4237 1.46 0.5056 1.33Q0.5875 1.21 0.681 1.1Q0.7745 0.9829 0.8787 0.8787Q0.9829 0.7745 1.1 0.681Q1.21 0.5875 1.33 0.5056Q1.46 0.4237 1.59 0.3542Q1.72 0.2848 1.85 0.2284Q1.99 0.172 2.13 0.1292Q2.27 0.0864 2.41 0.05764Q2.56 0.02889 2.71 0.01445Q2.85 0 3 0L17 0Q17.15 0 17.29 0.01445Q17.44 0.02889 17.59 0.05764Q17.73 0.0864 17.87 0.1292Q18.01 0.172 18.15 0.2284Q18.28 0.2848 18.41 0.3542Q18.54 0.4237 18.67 0.5056Q18.79 0.5875 18.9 0.681Q19.02 0.7745 19.12 0.8787Q19.23 0.9829 19.32 1.1Q19.41 1.21 19.49 1.33Q19.58 1.46 19.65 1.59Q19.72 1.72 19.77 1.85Q19.83 1.99 19.87 2.13Q19.91 2.27 19.94 2.41Q19.97 2.56 19.99 2.71Q20 2.85 20 3L20 15Q20 15.15 19.99 15.29Q19.97 15.44 19.94 15.59Q19.91 15.73 19.87 15.87Q19.83 16.01 19.77 16.15Q19.72 16.28 19.65 16.41Q19.58 16.54 19.49 16.67Q19.41 16.79 19.32 16.9Q19.23 17.02 19.12 17.12Q19.02 17.23 18.9 17.32Q18.79 17.41 18.67 17.49Q18.54 17.58 18.41 17.65Q18.28 17.72 18.15 17.77Q18.01 17.83 17.87 17.87Q17.73 17.91 17.59 17.94Q17.44 17.97 17.29 17.99Q17.15 18 17 18L3 18Q2.85 18 2.71 17.99Q2.56 17.97 2.41 17.94Q2.27 17.91 2.13 17.87Q1.99 17.83 1.85 17.77Q1.72 17.72 1.59 17.65Q1.46 17.58 1.33 17.49Q1.21 17.41 1.1 17.32Q0.9829 17.23 0.8787 17.12Q0.7745 17.02 0.681 16.9Q0.5875 16.79 0.5056 16.67Q0.4237 16.54 0.3542 16.41Q0.2848 16.28 0.2284 16.15Q0.172 16.01 0.1292 15.87Q0.0864 15.73 0.05764 15.59Q0.02889 15.44 0.01445 15.29Q0 15.15 0 15Z" /><path id="analyses-setup-dark_d2" d="M19 21L8 21L8 7L19 7M19 5L8 5Q7.9 5 7.8 5.01Q7.71 5.02 7.61 5.04Q7.51 5.06 7.42 5.09Q7.33 5.11 7.23 5.15Q7.14 5.19 7.06 5.24Q6.97 5.28 6.89 5.34Q6.81 5.39 6.73 5.45Q6.66 5.52 6.59 5.59Q6.52 5.66 6.45 5.73Q6.39 5.81 6.34 5.89Q6.28 5.97 6.24 6.06Q6.19 6.14 6.15 6.23Q6.11 6.33 6.09 6.42Q6.06 6.51 6.04 6.61Q6.02 6.71 6.01 6.8Q6 6.9 6 7L6 21Q6 21.1 6.01 21.2Q6.02 21.29 6.04 21.39Q6.06 21.49 6.09 21.58Q6.11 21.67 6.15 21.77Q6.19 21.86 6.24 21.94Q6.28 22.03 6.34 22.11Q6.39 22.19 6.45 22.27Q6.52 22.34 6.59 22.41Q6.66 22.48 6.73 22.55Q6.81 22.61 6.89 22.66Q6.97 22.72 7.06 22.76Q7.14 22.81 7.23 22.85Q7.33 22.89 7.42 22.91Q7.51 22.94 7.61 22.96Q7.71 22.98 7.8 22.99Q7.9 23 8 23L19 23Q19.1 23 19.2 22.99Q19.29 22.98 19.39 22.96Q19.49 22.94 19.58 22.91Q19.67 22.89 19.77 22.85Q19.86 22.81 19.94 22.76Q20.03 22.72 20.11 22.66Q20.19 22.61 20.27 22.55Q20.34 22.48 20.41 22.41Q20.48 22.34 20.55 22.27Q20.61 22.19 20.66 22.11Q20.72 22.03 20.76 21.94Q20.81 21.86 20.85 21.77Q20.89 21.67 20.91 21.58Q20.94 21.49 20.96 21.39Q20.98 21.29 20.99 21.2Q21 21.1 21 21L21 7Q21 6.9 20.99 6.8Q20.98 6.71 20.96 6.61Q20.94 6.51 20.91 6.42Q20.89 6.33 20.85 6.23Q20.81 6.14 20.76 6.06Q20.72 5.97 20.66 5.89Q20.61 5.81 20.55 5.73Q20.48 5.66 20.41 5.59Q20.34 5.52 20.27 5.45Q20.19 5.39 20.11 5.34Q20.03 5.28 19.94 5.24Q19.86 5.19 19.77 5.15Q19.67 5.11 19.58 5.09Q19.49 5.06 19.39 5.04Q19.29 5.02 19.2 5.01Q19.1 5 19 5M16 1L4 1Q3.9 1 3.8 1.01Q3.71 1.02 3.61 1.04Q3.51 1.06 3.42 1.09Q3.33 1.11 3.23 1.15Q3.14 1.19 3.06 1.24Q2.97 1.28 2.89 1.34Q2.81 1.39 2.73 1.45Q2.66 1.52 2.59 1.59Q2.52 1.66 2.45 1.73Q2.39 1.81 2.34 1.89Q2.28 1.97 2.24 2.06Q2.19 2.14 2.15 2.23Q2.11 2.33 2.09 2.42Q2.06 2.51 2.04 2.61Q2.02 2.71 2.01 2.8Q2 2.9 2 3L2 17L4 17L4 3L16 3L16 1Z" /><path id="analyses-setup-dark_d3" d="M0.5 20.5L0.5 3.5Q0.5 3.35 0.5144 3.21Q0.5289 3.06 0.5576 2.91Q0.5864 2.77 0.6292 2.63Q0.672 2.49 0.7284 2.35Q0.7848 2.22 0.8542 2.09Q0.9237 1.96 1.01 1.83Q1.09 1.71 1.18 1.6Q1.27 1.48 1.38 1.38Q1.48 1.27 1.6 1.18Q1.71 1.09 1.83 1.01Q1.96 0.9237 2.09 0.8542Q2.22 0.7848 2.35 0.7284Q2.49 0.672 2.63 0.6292Q2.77 0.5864 2.91 0.5576Q3.06 0.5289 3.21 0.5144Q3.35 0.5 3.5 0.5L449.5 0.5Q449.65 0.5 449.79 0.5144Q449.94 0.5289 450.09 0.5576Q450.23 0.5864 450.37 0.6292Q450.51 0.672 450.65 0.7284Q450.78 0.7848 450.91 0.8542Q451.04 0.9237 451.17 1.01Q451.29 1.09 451.4 1.18Q451.52 1.27 451.62 1.38Q451.73 1.48 451.82 1.6Q451.91 1.71 451.99 1.83Q452.08 1.96 452.15 2.09Q452.22 2.22 452.27 2.35Q452.33 2.49 452.37 2.63Q452.41 2.77 452.44 2.91Q452.47 3.06 452.49 3.21Q452.5 3.35 452.5 3.5L452.5 20.5Q452.5 20.65 452.49 20.79Q452.47 20.94 452.44 21.09Q452.41 21.23 452.37 21.37Q452.33 21.51 452.27 21.65Q452.22 21.78 452.15 21.91Q452.08 22.04 451.99 22.17Q451.91 22.29 451.82 22.4Q451.73 22.52 451.62 22.62Q451.52 22.73 451.4 22.82Q451.29 22.91 451.17 22.99Q451.04 23.08 450.91 23.15Q450.78 23.22 450.65 23.27Q450.51 23.33 450.37 23.37Q450.23 23.41 450.09 23.44Q449.94 23.47 449.79 23.49Q449.65 23.5 449.5 23.5L3.5 23.5Q3.35 23.5 3.21 23.49Q3.06 23.47 2.91 23.44Q2.77 23.41 2.63 23.37Q2.49 23.33 2.35 23.27Q2.22 23.22 2.09 23.15Q1.96 23.08 1.83 22.99Q1.71 22.91 1.6 22.82Q1.48 22.73 1.38 22.62Q1.27 22.52 1.18 22.4Q1.09 22.29 1.01 22.17Q0.9237 22.04 0.8542 21.91Q0.7848 21.78 0.7284 21.65Q0.672 21.51 0.6292 21.37Q0.5864 21.23 0.5576 21.09Q0.5289 20.94 0.5144 20.79Q0.5 20.65 0.5 20.5Z" /><path id="analyses-setup-dark_d4" d="M0.5 16.5L0.5 3.5Q0.5 3.35 0.5144 3.21Q0.5289 3.06 0.5576 2.91Q0.5864 2.77 0.6292 2.63Q0.672 2.49 0.7284 2.35Q0.7848 2.22 0.8542 2.09Q0.9237 1.96 1.01 1.83Q1.09 1.71 1.18 1.6Q1.27 1.48 1.38 1.38Q1.48 1.27 1.6 1.18Q1.71 1.09 1.83 1.01Q1.96 0.9237 2.09 0.8542Q2.22 0.7848 2.35 0.7284Q2.49 0.672 2.63 0.6292Q2.77 0.5864 2.91 0.5576Q3.06 0.5289 3.21 0.5144Q3.35 0.5 3.5 0.5L16.5 0.5Q16.65 0.5 16.79 0.5144Q16.94 0.5289 17.09 0.5576Q17.23 0.5864 17.37 0.6292Q17.51 0.672 17.65 0.7284Q17.78 0.7848 17.91 0.8542Q18.04 0.9237 18.17 1.01Q18.29 1.09 18.4 1.18Q18.52 1.27 18.62 1.38Q18.73 1.48 18.82 1.6Q18.91 1.71 18.99 1.83Q19.08 1.96 19.15 2.09Q19.22 2.22 19.27 2.35Q19.33 2.49 19.37 2.63Q19.41 2.77 19.44 2.91Q19.47 3.06 19.49 3.21Q19.5 3.35 19.5 3.5L19.5 16.5Q19.5 16.65 19.49 16.79Q19.47 16.94 19.44 17.09Q19.41 17.23 19.37 17.37Q19.33 17.51 19.27 17.65Q19.22 17.78 19.15 17.91Q19.08 18.04 18.99 18.17Q18.91 18.29 18.82 18.4Q18.73 18.52 18.62 18.62Q18.52 18.73 18.4 18.82Q18.29 18.91 18.17 18.99Q18.04 19.08 17.91 19.15Q17.78 19.22 17.65 19.27Q17.51 19.33 17.37 19.37Q17.23 19.41 17.09 19.44Q16.94 19.47 16.79 19.49Q16.65 19.5 16.5 19.5L3.5 19.5Q3.35 19.5 3.21 19.49Q3.06 19.47 2.91 19.44Q2.77 19.41 2.63 19.37Q2.49 19.33 2.35 19.27Q2.22 19.22 2.09 19.15Q1.96 19.08 1.83 18.99Q1.71 18.91 1.6 18.82Q1.48 18.73 1.38 18.62Q1.27 18.52 1.18 18.4Q1.09 18.29 1.01 18.17Q0.9237 18.04 0.8542 17.91Q0.7848 17.78 0.7284 17.65Q0.672 17.51 0.6292 17.37Q0.5864 17.23 0.5576 17.09Q0.5289 16.94 0.5144 16.79Q0.5 16.65 0.5 16.5Z" /><path id="analyses-setup-dark_d5" d="M2.83 5.45L0.8728 3.49Q0.8367 3.46 0.7946 3.43Q0.7525 3.4 0.7059 3.38Q0.6593 3.37 0.61 3.36Q0.5607 3.35 0.5105 3.35Q0.4604 3.35 0.4112 3.36Q0.3621 3.37 0.3159 3.39Q0.2696 3.41 0.228 3.43Q0.1863 3.46 0.1508 3.5Q0.1154 3.53 0.08742 3.58Q0.05946 3.62 0.04006 3.66Q0.02067 3.71 0.01056 3.76Q0.0004556 3.81 0.00001945 3.86Q-0.0004166 3.91 0.008834 3.96Q0.01808 4.01 0.03667 4.05Q0.05526 4.1 0.08249 4.14Q0.1097 4.18 0.1446 4.22L2.46 6.54Q2.5 6.57 2.54 6.6Q2.58 6.63 2.63 6.65Q2.68 6.67 2.73 6.68Q2.78 6.69 2.83 6.69Q2.88 6.69 2.93 6.68Q2.98 6.67 3.02 6.65Q3.07 6.63 3.11 6.6Q3.15 6.57 3.19 6.54L8.86 0.8728Q8.89 0.8367 8.92 0.7946Q8.94 0.7525 8.96 0.7059Q8.98 0.6593 8.99 0.61Q9 0.5607 9 0.5105Q9 0.4604 8.99 0.4112Q8.98 0.3621 8.96 0.3159Q8.94 0.2696 8.91 0.228Q8.88 0.1863 8.85 0.1508Q8.81 0.1154 8.77 0.08742Q8.73 0.05946 8.68 0.04006Q8.64 0.02067 8.59 0.01056Q8.54 0.000455 8.49 0.00001942Q8.44 -0.0004162 8.39 0.008835Q8.34 0.01809 8.29 0.03668Q8.25 0.05527 8.21 0.0825Q8.16 0.1097 8.13 0.1446L2.83 5.45Z" /><path id="analyses-setup-dark_d6" d="M0 12L0 3Q0 2.85 0.01445 2.71Q0.02889 2.56 0.05764 2.41Q0.0864 2.27 0.1292 2.13Q0.172 1.99 0.2284 1.85Q0.2848 1.72 0.3542 1.59Q0.4237 1.46 0.5056 1.33Q0.5875 1.21 0.681 1.1Q0.7745 0.9829 0.8787 0.8787Q0.9829 0.7745 1.1 0.681Q1.21 0.5875 1.33 0.5056Q1.46 0.4237 1.59 0.3542Q1.72 0.2848 1.85 0.2284Q1.99 0.172 2.13 0.1292Q2.27 0.0864 2.41 0.05764Q2.56 0.02889 2.71 0.01445Q2.85 0 3 0L20 0Q20.15 0 20.29 0.01445Q20.44 0.02889 20.59 0.05764Q20.73 0.0864 20.87 0.1292Q21.01 0.172 21.15 0.2284Q21.28 0.2848 21.41 0.3542Q21.54 0.4237 21.67 0.5056Q21.79 0.5875 21.9 0.681Q22.02 0.7745 22.12 0.8787Q22.23 0.9829 22.32 1.1Q22.41 1.21 22.49 1.33Q22.58 1.46 22.65 1.59Q22.72 1.72 22.77 1.85Q22.83 1.99 22.87 2.13Q22.91 2.27 22.94 2.41Q22.97 2.56 22.99 2.71Q23 2.85 23 3L23 12Q23 12.15 22.99 12.29Q22.97 12.44 22.94 12.59Q22.91 12.73 22.87 12.87Q22.83 13.01 22.77 13.15Q22.72 13.28 22.65 13.41Q22.58 13.54 22.49 13.67Q22.41 13.79 22.32 13.9Q22.23 14.02 22.12 14.12Q22.02 14.23 21.9 14.32Q21.79 14.41 21.67 14.49Q21.54 14.58 21.41 14.65Q21.28 14.72 21.15 14.77Q21.01 14.83 20.87 14.87Q20.73 14.91 20.59 14.94Q20.44 14.97 20.29 14.99Q20.15 15 20 15L3 15Q2.85 15 2.71 14.99Q2.56 14.97 2.41 14.94Q2.27 14.91 2.13 14.87Q1.99 14.83 1.85 14.77Q1.72 14.72 1.59 14.65Q1.46 14.58 1.33 14.49Q1.21 14.41 1.1 14.32Q0.9829 14.23 0.8787 14.12Q0.7745 14.02 0.681 13.9Q0.5875 13.79 0.5056 13.67Q0.4237 13.54 0.3542 13.41Q0.2848 13.28 0.2284 13.15Q0.172 13.01 0.1292 12.87Q0.0864 12.73 0.05764 12.59Q0.02889 12.44 0.01445 12.29Q0 12.15 0 12Z" /></defs><rect fill="#010101" width="520" height="420" /><rect fill="#15222D" width="520" height="420" /><clipPath id="analyses-setup-dark_cl_c6d"><rect width="520" height="420" rx="8" ry="8" /></clipPath><g clip-path="url(#analyses-setup-dark_cl_c6d)"><path fill="none" stroke="#283A48" stroke-width="1" stroke-miterlimit="10" d="M0.5 411.5L0.5 8.5Q0.5 8.3 0.5096 8.11Q0.5193 7.91 0.5385 7.72Q0.5578 7.52 0.5866 7.33Q0.6154 7.13 0.6537 6.94Q0.692 6.75 0.7398 6.56Q0.7875 6.37 0.8445 6.18Q0.9015 5.99 0.9676 5.8Q1.03 5.62 1.11 5.44Q1.18 5.26 1.27 5.08Q1.35 4.9 1.44 4.73Q1.54 4.56 1.64 4.39Q1.74 4.22 1.85 4.06Q1.96 3.89 2.07 3.73Q2.19 3.58 2.32 3.42Q2.44 3.27 2.57 3.13Q2.7 2.98 2.84 2.84Q2.98 2.7 3.13 2.57Q3.27 2.44 3.42 2.32Q3.58 2.19 3.73 2.07Q3.89 1.96 4.06 1.85Q4.22 1.74 4.39 1.64Q4.56 1.54 4.73 1.44Q4.9 1.35 5.08 1.27Q5.26 1.18 5.44 1.11Q5.62 1.03 5.8 0.9676Q5.99 0.9015 6.18 0.8445Q6.37 0.7875 6.56 0.7398Q6.75 0.692 6.94 0.6537Q7.13 0.6154 7.33 0.5866Q7.52 0.5578 7.72 0.5385Q7.91 0.5193 8.11 0.5096Q8.3 0.5 8.5 0.5L511.5 0.5Q511.7 0.5 511.89 0.5096Q512.09 0.5193 512.28 0.5385Q512.48 0.5578 512.67 0.5866Q512.87 0.6154 513.06 0.6537Q513.25 0.692 513.44 0.7398Q513.63 0.7875 513.82 0.8445Q514.01 0.9015 514.2 0.9676Q514.38 1.03 514.56 1.11Q514.74 1.18 514.92 1.27Q515.1 1.35 515.27 1.44Q515.44 1.54 515.61 1.64Q515.78 1.74 515.95 1.85Q516.11 1.96 516.27 2.07Q516.42 2.19 516.58 2.32Q516.73 2.44 516.87 2.57Q517.02 2.7 517.16 2.84Q517.3 2.98 517.43 3.13Q517.56 3.27 517.68 3.42Q517.81 3.58 517.93 3.73Q518.04 3.89 518.15 4.06Q518.26 4.22 518.36 4.39Q518.46 4.56 518.55 4.73Q518.65 4.9 518.73 5.08Q518.82 5.26 518.89 5.44Q518.97 5.62 519.03 5.8Q519.1 5.99 519.16 6.18Q519.21 6.37 519.26 6.56Q519.31 6.75 519.35 6.94Q519.39 7.13 519.41 7.33Q519.44 7.52 519.46 7.72Q519.48 7.91 519.49 8.11Q519.5 8.3 519.5 8.5L519.5 411.5Q519.5 411.7 519.49 411.89Q519.48 412.09 519.46 412.28Q519.44 412.48 519.41 412.67Q519.39 412.87 519.35 413.06Q519.31 413.25 519.26 413.44Q519.21 413.63 519.16 413.82Q519.1 414.01 519.03 414.2Q518.97 414.38 518.89 414.56Q518.82 414.74 518.73 414.92Q518.65 415.1 518.55 415.27Q518.46 415.44 518.36 415.61Q518.26 415.78 518.15 415.94Q518.04 416.11 517.93 416.27Q517.81 416.42 517.68 416.58Q517.56 416.73 517.43 416.87Q517.3 417.02 517.16 417.16Q517.02 417.3 516.87 417.43Q516.73 417.56 516.58 417.68Q516.42 417.81 516.27 417.93Q516.11 418.04 515.95 418.15Q515.78 418.26 515.61 418.36Q515.44 418.46 515.27 418.56Q515.1 418.65 514.92 418.73Q514.74 418.82 514.56 418.89Q514.38 418.97 514.2 419.03Q514.01 419.1 513.82 419.16Q513.63 419.21 513.44 419.26Q513.25 419.31 513.06 419.35Q512.87 419.39 512.67 419.41Q512.48 419.44 512.28 419.46Q512.09 419.48 511.89 419.49Q511.7 419.5 511.5 419.5L8.5 419.5Q8.3 419.5 8.11 419.49Q7.91 419.48 7.72 419.46Q7.52 419.44 7.33 419.41Q7.13 419.39 6.94 419.35Q6.75 419.31 6.56 419.26Q6.37 419.21 6.18 419.16Q5.99 419.1 5.8 419.03Q5.62 418.97 5.44 418.89Q5.26 418.82 5.08 418.73Q4.9 418.65 4.73 418.56Q4.56 418.46 4.39 418.36Q4.22 418.26 4.06 418.15Q3.89 418.04 3.73 417.93Q3.58 417.81 3.42 417.68Q3.27 417.56 3.13 417.43Q2.98 417.3 2.84 417.16Q2.7 417.02 2.57 416.87Q2.44 416.73 2.32 416.58Q2.19 416.42 2.07 416.27Q1.96 416.11 1.85 415.94Q1.74 415.78 1.64 415.61Q1.54 415.44 1.44 415.27Q1.35 415.1 1.27 414.92Q1.18 414.74 1.11 414.56Q1.03 414.38 0.9676 414.2Q0.9015 414.01 0.8445 413.82Q0.7875 413.63 0.7398 413.44Q0.692 413.25 0.6537 413.06Q0.6154 412.87 0.5866 412.67Q0.5578 412.48 0.5385 412.28Q0.5193 412.09 0.5096 411.89Q0.5 411.7 0.5 411.5Z" /><rect fill="#0E1820" transform="translate(1 1)" width="518" height="418" /><rect fill="#1C2C39" transform="translate(1 1)" width="518" height="34" /><clipPath id="analyses-setup-dark_cl_c6e"><rect x="213" y="10" width="95" height="16" /></clipPath><g clip-path="url(#analyses-setup-dark_cl_c6e)"><text fill="#9DB0C0" transform="translate(213 10)" font-size="12.5" font-weight="600" font-family="Inter" x="0, 8.11, 15.52, 20.27, 27.88, 35.68, 38.79, 47.83, 55.46, 62.64, 65.9, 73.1, 79.96, 87.37, " y="12.11, ">
							Setup Analyses
					</text></g><use xlink:href="#analyses-setup-dark_d0" fill="#3C4E5D" transform="translate(468 13)" /><use xlink:href="#analyses-setup-dark_d0" fill="#3C4E5D" transform="translate(483 13)" /><use xlink:href="#analyses-setup-dark_d0" fill="#3C4E5D" transform="translate(498 13)" /><clipPath id="analyses-setup-dark_cl_c6f"><rect y="34" width="520" height="341" /></clipPath><g clip-path="url(#analyses-setup-dark_cl_c6f)"><rect fill="#171717" transform="translate(0 34)" width="520" height="341" /><clipPath id="analyses-setup-dark_cl_c70"><rect x="4" y="38" width="21" height="19" /></clipPath><g clip-path="url(#analyses-setup-dark_cl_c70)"><clipPath id="analyses-setup-dark_cl_c71"><rect x="7" y="40" width="15" height="15" /></clipPath><g clip-path="url(#analyses-setup-dark_cl_c71)"><path fill="white" fill-opacity="0.6" transform="matrix(0.625 0 0 0.625 7 40)" d="M8 5.14L8 19.14L19 12.14L8 5.14Z" fill-rule="evenodd" /></g></g><clipPath id="analyses-setup-dark_cl_c73"><rect x="30" y="40" width="180" height="15" /></clipPath><g clip-path="url(#analyses-setup-dark_cl_c73)"><text fill="white" transform="translate(30 40)" font-size="12" font-weight="600" font-family="Inter" x="0, 7.03, 14.32, 21.55, 27.17, 36.1, 42.99, 47.75, 58.53, 65.82, 73.14, 76.27, 83.19, 88.81, 96.7, 103.59, 106.72, 113.62, 120.93, 127.86, 134.97, 140.59, 148.38, 158.25, 165.36, 172.47, " y="11.63, ">
								FET_Harmonic_Balance_Sweep
						</text></g><clipPath id="analyses-setup-dark_cl_c74"><rect x="4" y="58" width="20" height="18" /></clipPath><g clip-path="url(#analyses-setup-dark_cl_c74)"><clipPath id="analyses-setup-dark_cl_c75"><rect x="7" y="60" width="14" height="14" /></clipPath><g clip-path="url(#analyses-setup-dark_cl_c75)"><path fill="white" fill-opacity="0.6" transform="matrix(0.5833 0 0 0.5833 7 60)" d="M19 13L13 13L13 19L11 19L11 13L5 13L5 11L11 11L11 5L13 5L13 11L19 11L19 13Z" fill-rule="evenodd" /></g></g><clipPath id="analyses-setup-dark_cl_c77"><rect x="25" y="58" width="20" height="18" /></clipPath><g clip-path="url(#analyses-setup-dark_cl_c77)"><use xlink:href="#analyses-setup-dark_d1" fill="white" fill-opacity="0.2" transform="translate(25 58)" /><clipPath id="analyses-setup-dark_cl_c78"><rect x="28" y="60" width="14" height="14" /></clipPath><g clip-path="url(#analyses-setup-dark_cl_c78)"><path fill="white" fill-opacity="0.6" transform="matrix(0.5833 0 0 0.5833 28 60)" d="M20.71 7.04C21.1 6.65 21.1 6 20.71 5.63L18.37 3.29C18 2.9 17.35 2.9 16.96 3.29L15.12 5.12L18.87 8.87M3 17.25L3 21L6.75 21L17.81 9.93L14.06 6.18L3 17.25Z" fill-rule="evenodd" /></g></g><clipPath id="analyses-setup-dark_cl_c7a"><rect x="46" y="58" width="20" height="18" /></clipPath><g clip-path="url(#analyses-setup-dark_cl_c7a)"><use xlink:href="#analyses-setup-dark_d1" fill="white" fill-opacity="0.2" transform="translate(46 58)" /><clipPath id="analyses-setup-dark_cl_c7b"><rect x="49" y="60" width="14" height="14" /></clipPath><g clip-path="url(#analyses-setup-dark_cl_c7b)"><use xlink:href="#analyses-setup-dark_d2" fill="white" fill-opacity="0.6" transform="matrix(0.5833 0 0 0.5833 49 60)" fill-rule="evenodd" /></g></g><clipPath id="analyses-setup-dark_cl_c7d"><rect x="67" y="58" width="20" height="18" /></clipPath><g clip-path="url(#analyses-setup-dark_cl_c7d)"><use xlink:href="#analyses-setup-dark_d1" fill="white" fill-opacity="0.2" transform="translate(67 58)" /><clipPath id="analyses-setup-dark_cl_c7e"><rect x="70" y="60" width="14" height="14" /></clipPath><g clip-path="url(#analyses-setup-dark_cl_c7e)"><path fill="white" fill-opacity="0.6" transform="matrix(0.5833 0 0 0.5833 70 60)" d="M19 4L15.5 4L14.5 3L9.5 3L8.5 4L5 4L5 6L19 6M6 19Q6 19.1 6.01 19.2Q6.02 19.29 6.04 19.39Q6.06 19.49 6.09 19.58Q6.11 19.67 6.15 19.77Q6.19 19.86 6.24 19.94Q6.28 20.03 6.34 20.11Q6.39 20.19 6.45 20.27Q6.52 20.34 6.59 20.41Q6.66 20.48 6.73 20.55Q6.81 20.61 6.89 20.66Q6.97 20.72 7.06 20.76Q7.14 20.81 7.23 20.85Q7.33 20.89 7.42 20.91Q7.51 20.94 7.61 20.96Q7.71 20.98 7.8 20.99Q7.9 21 8 21L16 21Q16.1 21 16.2 20.99Q16.29 20.98 16.39 20.96Q16.49 20.94 16.58 20.91Q16.67 20.89 16.77 20.85Q16.86 20.81 16.94 20.76Q17.03 20.72 17.11 20.66Q17.19 20.61 17.27 20.55Q17.34 20.48 17.41 20.41Q17.48 20.34 17.55 20.27Q17.61 20.19 17.66 20.11Q17.72 20.03 17.76 19.94Q17.81 19.86 17.85 19.77Q17.89 19.67 17.91 19.58Q17.94 19.49 17.96 19.39Q17.98 19.29 17.99 19.2Q18 19.1 18 19L18 7L6 7L6 19Z" fill-rule="evenodd" /></g></g><clipPath id="analyses-setup-dark_cl_c80"><rect x="89" y="58" width="20" height="18" /></clipPath><g clip-path="url(#analyses-setup-dark_cl_c80)"><use xlink:href="#analyses-setup-dark_d1" fill="white" fill-opacity="0.2" transform="translate(89 58)" /><clipPath id="analyses-setup-dark_cl_c81"><rect x="92" y="60" width="14" height="14" /></clipPath><g clip-path="url(#analyses-setup-dark_cl_c81)"><path fill="white" fill-opacity="0.6" transform="matrix(0.5833 0 0 0.5833 92 60)" d="M7.41 15.41L12 10.83L16.59 15.41L18 14L12 8L6 14L7.41 15.41Z" fill-rule="evenodd" /></g></g><clipPath id="analyses-setup-dark_cl_c83"><rect x="110" y="58" width="20" height="18" /></clipPath><g clip-path="url(#analyses-setup-dark_cl_c83)"><use xlink:href="#analyses-setup-dark_d1" fill="white" fill-opacity="0.2" transform="translate(110 58)" /><clipPath id="analyses-setup-dark_cl_c84"><rect x="113" y="60" width="14" height="14" /></clipPath><g clip-path="url(#analyses-setup-dark_cl_c84)"><path fill="white" fill-opacity="0.6" transform="matrix(0.5833 0 0 0.5833 113 60)" d="M7.41 8.58L12 13.17L16.59 8.58L18 10L12 16L6 10L7.41 8.58Z" fill-rule="evenodd" /></g></g><rect fill="white" fill-opacity="0.2" transform="translate(134 61)" width="1" height="12" /><clipPath id="analyses-setup-dark_cl_c86"><rect x="139" y="58" width="20" height="18" /></clipPath><g clip-path="url(#analyses-setup-dark_cl_c86)"><use xlink:href="#analyses-setup-dark_d1" fill="white" fill-opacity="0.2" transform="translate(139 58)" /><clipPath id="analyses-setup-dark_cl_c87"><rect x="142" y="60" width="14" height="14" /></clipPath><g clip-path="url(#analyses-setup-dark_cl_c87)"><use xlink:href="#analyses-setup-dark_d2" fill="white" fill-opacity="0.6" transform="matrix(0.5833 0 0 0.5833 142 60)" fill-rule="evenodd" /></g></g><clipPath id="analyses-setup-dark_cl_c89"><rect x="160" y="58" width="20" height="18" /></clipPath><g clip-path="url(#analyses-setup-dark_cl_c89)"><clipPath id="analyses-setup-dark_cl_c8a"><rect x="163" y="60" width="14" height="14" /></clipPath><g clip-path="url(#analyses-setup-dark_cl_c8a)"><path fill="white" fill-opacity="0.6" transform="matrix(0.5833 0 0 0.5833 163 60)" d="M9 9L15 9L15 15L9 15M7 17L17 17L17 7L7 7M15 5L17 5L17 3L15 3M15 21L17 21L17 19L15 19M19 17L21 17L21 15L19 15M19 9L21 9L21 7L19 7M19 21Q19.1 21 19.2 20.99Q19.29 20.98 19.39 20.96Q19.49 20.94 19.58 20.91Q19.67 20.89 19.77 20.85Q19.86 20.81 19.94 20.76Q20.03 20.72 20.11 20.66Q20.19 20.61 20.27 20.55Q20.34 20.48 20.41 20.41Q20.48 20.34 20.55 20.27Q20.61 20.19 20.66 20.11Q20.72 20.03 20.76 19.94Q20.81 19.86 20.85 19.77Q20.89 19.67 20.91 19.58Q20.94 19.49 20.96 19.39Q20.98 19.29 20.99 19.2Q21 19.1 21 19L19 19M19 13L21 13L21 11L19 11M11 21L13 21L13 19L11 19M9 3L7 3L7 5L9 5M3 17L5 17L5 15L3 15M5 21L5 19L3 19Q3 19.1 3.01 19.2Q3.02 19.29 3.04 19.39Q3.06 19.49 3.09 19.58Q3.11 19.67 3.15 19.77Q3.19 19.86 3.24 19.94Q3.28 20.03 3.34 20.11Q3.39 20.19 3.45 20.27Q3.52 20.34 3.59 20.41Q3.66 20.48 3.73 20.55Q3.81 20.61 3.89 20.66Q3.97 20.72 4.06 20.76Q4.14 20.81 4.23 20.85Q4.33 20.89 4.42 20.91Q4.51 20.94 4.61 20.96Q4.71 20.98 4.8 20.99Q4.9 21 5 21M19 3L19 5L21 5Q21 4.9 20.99 4.8Q20.98 4.71 20.96 4.61Q20.94 4.51 20.91 4.42Q20.89 4.33 20.85 4.23Q20.81 4.14 20.76 4.06Q20.72 3.97 20.66 3.89Q20.61 3.81 20.55 3.73Q20.48 3.66 20.41 3.59Q20.34 3.52 20.27 3.45Q20.19 3.39 20.11 3.34Q20.03 3.28 19.94 3.24Q19.86 3.19 19.77 3.15Q19.67 3.11 19.58 3.09Q19.49 3.06 19.39 3.04Q19.29 3.02 19.2 3.01Q19.1 3 19 3M13 3L11 3L11 5L13 5M3 9L5 9L5 7L3 7M7 21L9 21L9 19L7 19M3 13L5 13L5 11L3 11M3 5L5 5L5 3Q4.9 3 4.8 3.01Q4.71 3.02 4.61 3.04Q4.51 3.06 4.42 3.09Q4.33 3.11 4.23 3.15Q4.14 3.19 4.06 3.24Q3.97 3.28 3.89 3.34Q3.81 3.39 3.73 3.45Q3.66 3.52 3.59 3.59Q3.52 3.66 3.45 3.73Q3.39 3.81 3.34 3.89Q3.28 3.97 3.24 4.06Q3.19 4.14 3.15 4.23Q3.11 4.33 3.09 4.42Q3.06 4.51 3.04 4.61Q3.02 4.71 3.01 4.8Q3 4.9 3 5Z" fill-rule="evenodd" /></g></g><clipPath id="analyses-setup-dark_cl_c8c"><rect x="181" y="58" width="20" height="18" /></clipPath><g clip-path="url(#analyses-setup-dark_cl_c8c)"><clipPath id="analyses-setup-dark_cl_c8d"><rect x="184" y="60" width="14" height="14" /></clipPath><g clip-path="url(#analyses-setup-dark_cl_c8d)"><path fill="white" fill-opacity="0.6" transform="matrix(0.5833 0 0 0.5833 184 60)" d="M19 20L5 20L5 4L7 4L7 7L17 7L17 4L19 4M12 2Q12.1 2 12.2 2.02Q12.29 2.04 12.38 2.08Q12.47 2.11 12.56 2.17Q12.64 2.22 12.71 2.29Q12.78 2.36 12.83 2.44Q12.89 2.53 12.92 2.62Q12.96 2.71 12.98 2.8Q13 2.9 13 3Q13 3.1 12.98 3.2Q12.96 3.29 12.92 3.38Q12.89 3.47 12.83 3.56Q12.78 3.64 12.71 3.71Q12.64 3.78 12.56 3.83Q12.47 3.89 12.38 3.92Q12.29 3.96 12.2 3.98Q12.1 4 12 4Q11.9 4 11.8 3.98Q11.71 3.96 11.62 3.92Q11.53 3.89 11.44 3.83Q11.36 3.78 11.29 3.71Q11.22 3.64 11.17 3.56Q11.11 3.47 11.08 3.38Q11.04 3.29 11.02 3.2Q11 3.1 11 3Q11 2.9 11.02 2.8Q11.04 2.71 11.08 2.62Q11.11 2.53 11.17 2.44Q11.22 2.36 11.29 2.29Q11.36 2.22 11.44 2.17Q11.53 2.11 11.62 2.08Q11.71 2.04 11.8 2.02Q11.9 2 12 2M19 2L14.82 2C14.4 0.84 13.3 0 12 0C10.7 0 9.6 0.84 9.18 2L5 2Q4.9 2 4.8 2.01Q4.71 2.02 4.61 2.04Q4.51 2.06 4.42 2.09Q4.33 2.11 4.23 2.15Q4.14 2.19 4.06 2.24Q3.97 2.28 3.89 2.34Q3.81 2.39 3.73 2.45Q3.66 2.52 3.59 2.59Q3.52 2.66 3.45 2.73Q3.39 2.81 3.34 2.89Q3.28 2.97 3.24 3.06Q3.19 3.14 3.15 3.23Q3.11 3.33 3.09 3.42Q3.06 3.51 3.04 3.61Q3.02 3.71 3.01 3.8Q3 3.9 3 4L3 20Q3 20.1 3.01 20.2Q3.02 20.29 3.04 20.39Q3.06 20.49 3.09 20.58Q3.11 20.67 3.15 20.77Q3.19 20.86 3.24 20.94Q3.28 21.03 3.34 21.11Q3.39 21.19 3.45 21.27Q3.52 21.34 3.59 21.41Q3.66 21.48 3.73 21.55Q3.81 21.61 3.89 21.66Q3.97 21.72 4.06 21.76Q4.14 21.81 4.23 21.85Q4.33 21.89 4.42 21.91Q4.51 21.94 4.61 21.96Q4.71 21.98 4.8 21.99Q4.9 22 5 22L19 22Q19.1 22 19.2 21.99Q19.29 21.98 19.39 21.96Q19.49 21.94 19.58 21.91Q19.67 21.89 19.77 21.85Q19.86 21.81 19.94 21.76Q20.03 21.72 20.11 21.66Q20.19 21.61 20.27 21.55Q20.34 21.48 20.41 21.41Q20.48 21.34 20.55 21.27Q20.61 21.19 20.66 21.11Q20.72 21.03 20.76 20.94Q20.81 20.86 20.85 20.77Q20.89 20.67 20.91 20.58Q20.94 20.49 20.96 20.39Q20.98 20.29 20.99 20.2Q21 20.1 21 20L21 4Q21 3.9 20.99 3.8Q20.98 3.71 20.96 3.61Q20.94 3.51 20.91 3.42Q20.89 3.33 20.85 3.23Q20.81 3.14 20.76 3.06Q20.72 2.97 20.66 2.89Q20.61 2.81 20.55 2.73Q20.48 2.66 20.41 2.59Q20.34 2.52 20.27 2.45Q20.19 2.39 20.11 2.34Q20.03 2.28 19.94 2.24Q19.86 2.19 19.77 2.15Q19.67 2.11 19.58 2.09Q19.49 2.06 19.39 2.04Q19.29 2.02 19.2 2.01Q19.1 2 19 2Z" fill-rule="evenodd" /></g></g><rect fill="white" fill-opacity="0.2" transform="translate(205 61)" width="1" height="12" /><clipPath id="analyses-setup-dark_cl_c8f"><rect x="210" y="58" width="20" height="18" /></clipPath><g clip-path="url(#analyses-setup-dark_cl_c8f)"><clipPath id="analyses-setup-dark_cl_c90"><rect x="213" y="60" width="14" height="14" /></clipPath><g clip-path="url(#analyses-setup-dark_cl_c90)"><path fill="white" fill-opacity="0.6" transform="matrix(0.5833 0 0 0.5833 213 60)" d="M14 2L6 2C4.89 2 4 2.9 4 4L4 20C4 21.11 4.89 22 6 22L18 22C19.11 22 20 21.11 20 20L20 8L14 2M18 20L6 20L6 4L13 4L13 9L18 9L18 20M15 11.93L15 19L7.93 19L10.05 16.88L7.22 14.05L10.05 11.22L12.88 14.05L15 11.93Z" fill-rule="evenodd" /></g></g><clipPath id="analyses-setup-dark_cl_c92"><rect x="231" y="58" width="20" height="18" /></clipPath><g clip-path="url(#analyses-setup-dark_cl_c92)"><clipPath id="analyses-setup-dark_cl_c93"><rect x="234" y="60" width="14" height="14" /></clipPath><g clip-path="url(#analyses-setup-dark_cl_c93)"><path fill="white" fill-opacity="0.6" transform="matrix(0.5833 0 0 0.5833 234 60)" d="M17 18L17 5L7 5L7 18L12 15.82L17 18M17 3Q17.1 3 17.2 3.01Q17.29 3.02 17.39 3.04Q17.49 3.06 17.58 3.09Q17.67 3.11 17.77 3.15Q17.86 3.19 17.94 3.24Q18.03 3.28 18.11 3.34Q18.19 3.39 18.27 3.45Q18.34 3.52 18.41 3.59Q18.48 3.66 18.55 3.73Q18.61 3.81 18.66 3.89Q18.72 3.97 18.76 4.06Q18.81 4.14 18.85 4.23Q18.89 4.33 18.91 4.42Q18.94 4.51 18.96 4.61Q18.98 4.71 18.99 4.8Q19 4.9 19 5L19 21L12 18L5 21L5 5C5 3.89 5.9 3 7 3L17 3M11 7L13 7L13 9L15 9L15 11L13 11L13 13L11 13L11 11L9 11L9 9L11 9L11 7Z" fill-rule="evenodd" /></g></g><clipPath id="analyses-setup-dark_cl_c95"><rect x="496" y="58" width="20" height="18" /></clipPath><g clip-path="url(#analyses-setup-dark_cl_c95)"><clipPath id="analyses-setup-dark_cl_c96"><rect x="499" y="60" width="14" height="14" /></clipPath><g clip-path="url(#analyses-setup-dark_cl_c96)"><path fill="white" fill-opacity="0.6" transform="matrix(0.5833 0 0 0.5833 499 60)" d="M11 18L13 18L13 16L11 16L11 18M12 2Q11.75 2 11.51 2.01Q11.26 2.02 11.02 2.05Q10.78 2.07 10.53 2.11Q10.29 2.14 10.05 2.19Q9.81 2.24 9.57 2.3Q9.33 2.36 9.1 2.43Q8.86 2.5 8.63 2.58Q8.4 2.67 8.17 2.76Q7.95 2.86 7.72 2.96Q7.5 3.07 7.29 3.18Q7.07 3.3 6.86 3.42Q6.65 3.55 6.44 3.69Q6.24 3.82 6.04 3.97Q5.85 4.11 5.66 4.27Q5.47 4.43 5.28 4.59Q5.1 4.76 4.93 4.93Q4.76 5.1 4.59 5.28Q4.43 5.47 4.27 5.66Q4.11 5.85 3.97 6.04Q3.82 6.24 3.69 6.44Q3.55 6.65 3.42 6.86Q3.3 7.07 3.18 7.29Q3.07 7.5 2.96 7.72Q2.86 7.95 2.76 8.17Q2.67 8.4 2.58 8.63Q2.5 8.86 2.43 9.1Q2.36 9.33 2.3 9.57Q2.24 9.81 2.19 10.05Q2.14 10.29 2.11 10.53Q2.07 10.78 2.05 11.02Q2.02 11.26 2.01 11.51Q2 11.75 2 12Q2 12.25 2.01 12.49Q2.02 12.74 2.05 12.98Q2.07 13.22 2.11 13.47Q2.14 13.71 2.19 13.95Q2.24 14.19 2.3 14.43Q2.36 14.67 2.43 14.9Q2.5 15.14 2.58 15.37Q2.67 15.6 2.76 15.83Q2.86 16.05 2.96 16.28Q3.07 16.5 3.18 16.71Q3.3 16.93 3.42 17.14Q3.55 17.35 3.69 17.56Q3.82 17.76 3.97 17.96Q4.11 18.15 4.27 18.34Q4.43 18.53 4.59 18.72Q4.76 18.9 4.93 19.07Q5.1 19.24 5.28 19.41Q5.47 19.57 5.66 19.73Q5.85 19.89 6.04 20.03Q6.24 20.18 6.44 20.31Q6.65 20.45 6.86 20.58Q7.07 20.7 7.29 20.82Q7.5 20.93 7.72 21.04Q7.95 21.14 8.17 21.24Q8.4 21.33 8.63 21.42Q8.86 21.5 9.1 21.57Q9.33 21.64 9.57 21.7Q9.81 21.76 10.05 21.81Q10.29 21.86 10.53 21.89Q10.78 21.93 11.02 21.95Q11.26 21.98 11.51 21.99Q11.75 22 12 22Q12.25 22 12.49 21.99Q12.74 21.98 12.98 21.95Q13.22 21.93 13.47 21.89Q13.71 21.86 13.95 21.81Q14.19 21.76 14.43 21.7Q14.67 21.64 14.9 21.57Q15.14 21.5 15.37 21.42Q15.6 21.33 15.83 21.24Q16.05 21.14 16.28 21.04Q16.5 20.93 16.71 20.82Q16.93 20.7 17.14 20.58Q17.35 20.45 17.56 20.31Q17.76 20.18 17.96 20.03Q18.15 19.89 18.34 19.73Q18.53 19.57 18.72 19.41Q18.9 19.24 19.07 19.07Q19.24 18.9 19.41 18.72Q19.57 18.53 19.73 18.34Q19.89 18.15 20.03 17.96Q20.18 17.76 20.31 17.56Q20.45 17.35 20.58 17.14Q20.7 16.93 20.82 16.71Q20.93 16.5 21.04 16.28Q21.14 16.05 21.24 15.83Q21.33 15.6 21.42 15.37Q21.5 15.14 21.57 14.9Q21.64 14.67 21.7 14.43Q21.76 14.19 21.81 13.95Q21.86 13.71 21.89 13.47Q21.93 13.22 21.95 12.98Q21.98 12.74 21.99 12.49Q22 12.25 22 12Q22 11.75 21.99 11.51Q21.98 11.26 21.95 11.02Q21.93 10.78 21.89 10.53Q21.86 10.29 21.81 10.05Q21.76 9.81 21.7 9.57Q21.64 9.33 21.57 9.1Q21.5 8.86 21.42 8.63Q21.33 8.4 21.24 8.17Q21.14 7.95 21.04 7.72Q20.93 7.5 20.82 7.29Q20.7 7.07 20.58 6.86Q20.45 6.65 20.31 6.44Q20.18 6.24 20.03 6.04Q19.89 5.85 19.73 5.66Q19.57 5.47 19.41 5.28Q19.24 5.1 19.07 4.93Q18.9 4.76 18.72 4.59Q18.53 4.43 18.34 4.27Q18.15 4.11 17.96 3.97Q17.76 3.82 17.56 3.69Q17.35 3.55 17.14 3.42Q16.93 3.3 16.71 3.18Q16.5 3.07 16.28 2.96Q16.05 2.86 15.83 2.76Q15.6 2.67 15.37 2.58Q15.14 2.5 14.9 2.43Q14.67 2.36 14.43 2.3Q14.19 2.24 13.95 2.19Q13.71 2.14 13.47 2.11Q13.22 2.07 12.98 2.05Q12.74 2.02 12.49 2.01Q12.25 2 12 2M12 20C7.59 20 4 16.41 4 12C4 7.59 7.59 4 12 4C16.41 4 20 7.59 20 12C20 16.41 16.41 20 12 20M12 6Q11.8 6 11.61 6.02Q11.41 6.04 11.22 6.08Q11.03 6.12 10.84 6.17Q10.65 6.23 10.47 6.3Q10.29 6.38 10.11 6.47Q9.94 6.56 9.78 6.67Q9.61 6.78 9.46 6.91Q9.31 7.03 9.17 7.17Q9.03 7.31 8.91 7.46Q8.78 7.61 8.67 7.78Q8.56 7.94 8.47 8.11Q8.38 8.29 8.3 8.47Q8.23 8.65 8.17 8.84Q8.12 9.03 8.08 9.22Q8.04 9.41 8.02 9.61Q8 9.8 8 10L10 10Q10 9.9 10.01 9.8Q10.02 9.71 10.04 9.61Q10.06 9.51 10.09 9.42Q10.11 9.33 10.15 9.23Q10.19 9.14 10.24 9.06Q10.28 8.97 10.34 8.89Q10.39 8.81 10.45 8.73Q10.52 8.66 10.59 8.59Q10.66 8.52 10.73 8.45Q10.81 8.39 10.89 8.34Q10.97 8.28 11.06 8.24Q11.14 8.19 11.23 8.15Q11.33 8.11 11.42 8.09Q11.51 8.06 11.61 8.04Q11.71 8.02 11.8 8.01Q11.9 8 12 8Q12.1 8 12.2 8.01Q12.29 8.02 12.39 8.04Q12.49 8.06 12.58 8.09Q12.67 8.11 12.77 8.15Q12.86 8.19 12.94 8.24Q13.03 8.28 13.11 8.34Q13.19 8.39 13.27 8.45Q13.34 8.52 13.41 8.59Q13.48 8.66 13.55 8.73Q13.61 8.81 13.66 8.89Q13.72 8.97 13.76 9.06Q13.81 9.14 13.85 9.23Q13.89 9.33 13.91 9.42Q13.94 9.51 13.96 9.61Q13.98 9.71 13.99 9.8Q14 9.9 14 10C14 12 11 11.75 11 15L13 15C13 12.75 16 12.5 16 10Q16 9.8 15.98 9.61Q15.96 9.41 15.92 9.22Q15.88 9.03 15.83 8.84Q15.77 8.65 15.7 8.47Q15.62 8.29 15.53 8.11Q15.44 7.94 15.33 7.78Q15.22 7.61 15.09 7.46Q14.97 7.31 14.83 7.17Q14.69 7.03 14.54 6.91Q14.39 6.78 14.22 6.67Q14.06 6.56 13.89 6.47Q13.71 6.38 13.53 6.3Q13.35 6.23 13.16 6.17Q12.97 6.12 12.78 6.08Q12.59 6.04 12.39 6.02Q12.2 6 12 6Z" fill-rule="evenodd" /></g></g><clipPath id="analyses-setup-dark_cl_c98"><rect y="78" width="520" height="297" /></clipPath><g clip-path="url(#analyses-setup-dark_cl_c98)"><clipPath id="analyses-setup-dark_cl_c9a"><rect x="4" y="84" width="55" height="13" /></clipPath><g clip-path="url(#analyses-setup-dark_cl_c9a)"><text fill="white" fill-opacity="0.6" transform="translate(4 84)" font-size="10" font-family="Inter" x="0, 6.34, 12.16, 17.39, 23.2, 25.57, 29.11, 34.33, 37.14, 40.75, 43.13, 45.5, 51.32, " y="9.69, ">
										Results file:
								</text></g><clipPath id="analyses-setup-dark_cl_c9b"><rect x="63" y="78" width="453" height="24" /></clipPath><g clip-path="url(#analyses-setup-dark_cl_c9b)"><use xlink:href="#analyses-setup-dark_d3" fill="#010101" fill-opacity="0.4" transform="translate(63 78)" /><use xlink:href="#analyses-setup-dark_d3" fill="none" stroke="white" stroke-width="1" stroke-miterlimit="10" stroke-opacity="0.6" transform="translate(63 78)" /><clipPath id="analyses-setup-dark_cl_c9d"><rect x="68" y="81" width="443" height="18" /></clipPath><g clip-path="url(#analyses-setup-dark_cl_c9d)"><clipPath id="analyses-setup-dark_cl_c9f"><rect x="68" y="83" width="443" height="15" /></clipPath><g clip-path="url(#analyses-setup-dark_cl_c9f)"><text fill="white" fill-opacity="0.298" transform="translate(68 83)" font-size="12" font-family="Inter" x="0, 7.04, 14.22, 21.24, 26.66, 35.54, 42.31, 46.77, 57.2, 64.36, 71.39, 74.23, 80.93, 86.35, 94.16, 100.93, 103.77, 110.54, 117.56, 124.26, 131.25, 136.67, 144.32, 153.85, 160.84, 167.83, 175.14, 178.45, 185.47, 192.55, " y="11.63, ">
														FET_Harmonic_Balance_Sweep.npy
												</text></g><text fill="white" transform="translate(68 83)" font-size="11" font-family="Inter" x="" y=""></text></g></g><clipPath id="analyses-setup-dark_cl_ca0"><rect y="106" width="520" height="250" /></clipPath><g clip-path="url(#analyses-setup-dark_cl_ca0)"><clipPath id="analyses-setup-dark_cl_ca4"><rect y="106" width="520" height="35" /></clipPath><g clip-path="url(#analyses-setup-dark_cl_ca4)"><clipPath id="analyses-setup-dark_cl_ca5"><rect x="4" y="111" width="28" height="24" /></clipPath><g clip-path="url(#analyses-setup-dark_cl_ca5)"><use xlink:href="#analyses-setup-dark_d4" fill="#0078D7" transform="translate(4 113)" /><use xlink:href="#analyses-setup-dark_d4" fill="none" stroke="#0078D7" stroke-width="1" stroke-miterlimit="10" transform="translate(4 113)" /><clipPath id="analyses-setup-dark_cl_ca6"><rect x="4" y="113" width="20" height="20" /></clipPath><g clip-path="url(#analyses-setup-dark_cl_ca6)"><use xlink:href="#analyses-setup-dark_d5" fill="white" transform="matrix(1.25 0 0 1.25 8.38 118.82)" fill-rule="evenodd" /></g></g><use xlink:href="#analyses-setup-dark_d6" fill="white" fill-opacity="0.09804" transform="translate(36 116)" /><clipPath id="analyses-setup-dark_cl_ca7"><rect x="40" y="117" width="15" height="13" /></clipPath><g clip-path="url(#analyses-setup-dark_cl_ca7)"><text fill="white" fill-opacity="0.8" transform="translate(40 117)" font-size="10" font-weight="600" font-family="Inter" x="0, 7.24, " y="9.69, ">
															DC
													</text></g><clipPath id="analyses-setup-dark_cl_ca8"><rect x="65" y="109" width="23" height="15" /></clipPath><g clip-path="url(#analyses-setup-dark_cl_ca8)"><text fill="white" transform="translate(65 109)" font-size="12" font-family="Inter" x="0, 8.63, 17.35, " y="11.63, ">
															DC1
													</text></g><clipPath id="analyses-setup-dark_cl_ca9"><rect x="65" y="125" width="74" height="13" /></clipPath><g clip-path="url(#analyses-setup-dark_cl_ca9)"><text fill="white" fill-opacity="0.6" transform="translate(65 125)" font-size="10" font-family="Inter" x="0, 7.61, 13.71, 19.53, 23.25, 28.89, 32.53, 34.9, 40.75, 46.85, 49.66, 55.75, 61.72, 64.09, 69.94, " y="9.69, ">
															Operating point
													</text></g></g><clipPath id="analyses-setup-dark_cl_caa"><rect y="141" width="520" height="35" /></clipPath><g clip-path="url(#analyses-setup-dark_cl_caa)"><clipPath id="analyses-setup-dark_cl_cab"><rect x="4" y="146" width="28" height="24" /></clipPath><g clip-path="url(#analyses-setup-dark_cl_cab)"><use xlink:href="#analyses-setup-dark_d4" fill="#0078D7" transform="translate(4 148)" /><use xlink:href="#analyses-setup-dark_d4" fill="none" stroke="#0078D7" stroke-width="1" stroke-miterlimit="10" transform="translate(4 148)" /><clipPath id="analyses-setup-dark_cl_cac"><rect x="4" y="148" width="20" height="20" /></clipPath><g clip-path="url(#analyses-setup-dark_cl_cac)"><use xlink:href="#analyses-setup-dark_d5" fill="white" transform="matrix(1.25 0 0 1.25 8.38 153.82)" fill-rule="evenodd" /></g></g><use xlink:href="#analyses-setup-dark_d6" fill="white" fill-opacity="0.09804" transform="translate(36 151)" /><clipPath id="analyses-setup-dark_cl_cad"><rect x="40" y="152" width="15" height="13" /></clipPath><g clip-path="url(#analyses-setup-dark_cl_cad)"><text fill="white" fill-opacity="0.8" transform="translate(40 152)" font-size="10" font-weight="600" font-family="Inter" x="0, 7.44, " y="9.69, ">
															HB
													</text></g><clipPath id="analyses-setup-dark_cl_cae"><rect x="65" y="144" width="23" height="15" /></clipPath><g clip-path="url(#analyses-setup-dark_cl_cae)"><text fill="white" transform="translate(65 144)" font-size="12" font-family="Inter" x="0, 8.88, 16.69, " y="11.63, ">
															HB1
													</text></g><clipPath id="analyses-setup-dark_cl_caf"><rect x="65" y="160" width="108" height="13" /></clipPath><g clip-path="url(#analyses-setup-dark_cl_caf)"><text fill="white" fill-opacity="0.6" transform="translate(65 160)" font-size="10" font-family="Inter" x="0, 3.21, 7.61, 14.2, 20.26, 23.07, 30.5, 37.9, 43.31, 46.11, 48.92, 55.28, 58.1, 64.01, 69.64, 73.37, 82.06, 88.03, 93.88, 96.25, 101.83, " y="9.69, ">
															f₀=2 GHz, 3 harmonics
													</text></g></g><clipPath id="analyses-setup-dark_cl_cb0"><rect y="176" width="520" height="35" /></clipPath><g clip-path="url(#analyses-setup-dark_cl_cb0)"><clipPath id="analyses-setup-dark_cl_cb1"><rect x="24" y="181" width="28" height="24" /></clipPath><g clip-path="url(#analyses-setup-dark_cl_cb1)"><use xlink:href="#analyses-setup-dark_d4" fill="#0078D7" transform="translate(24 183)" /><use xlink:href="#analyses-setup-dark_d4" fill="none" stroke="#0078D7" stroke-width="1" stroke-miterlimit="10" transform="translate(24 183)" /><clipPath id="analyses-setup-dark_cl_cb2"><rect x="24" y="183" width="20" height="20" /></clipPath><g clip-path="url(#analyses-setup-dark_cl_cb2)"><use xlink:href="#analyses-setup-dark_d5" fill="white" transform="matrix(1.25 0 0 1.25 28.38 188.82)" fill-rule="evenodd" /></g></g><path fill="white" fill-opacity="0.09804" transform="translate(56 186)" d="M0 12L0 3Q0 2.85 0.01445 2.71Q0.02889 2.56 0.05764 2.41Q0.0864 2.27 0.1292 2.13Q0.172 1.99 0.2284 1.85Q0.2848 1.72 0.3542 1.59Q0.4237 1.46 0.5056 1.33Q0.5875 1.21 0.681 1.1Q0.7745 0.9829 0.8787 0.8787Q0.9829 0.7745 1.1 0.681Q1.21 0.5875 1.33 0.5056Q1.46 0.4237 1.59 0.3542Q1.72 0.2848 1.85 0.2284Q1.99 0.172 2.13 0.1292Q2.27 0.0864 2.41 0.05764Q2.56 0.02889 2.71 0.01445Q2.85 0 3 0L22 0Q22.15 0 22.29 0.01445Q22.44 0.02889 22.59 0.05764Q22.73 0.0864 22.87 0.1292Q23.01 0.172 23.15 0.2284Q23.28 0.2848 23.41 0.3542Q23.54 0.4237 23.67 0.5056Q23.79 0.5875 23.9 0.681Q24.02 0.7745 24.12 0.8787Q24.23 0.9829 24.32 1.1Q24.41 1.21 24.49 1.33Q24.58 1.46 24.65 1.59Q24.72 1.72 24.77 1.85Q24.83 1.99 24.87 2.13Q24.91 2.27 24.94 2.41Q24.97 2.56 24.99 2.71Q25 2.85 25 3L25 12Q25 12.15 24.99 12.29Q24.97 12.44 24.94 12.59Q24.91 12.73 24.87 12.87Q24.83 13.01 24.77 13.15Q24.72 13.28 24.65 13.41Q24.58 13.54 24.49 13.67Q24.41 13.79 24.32 13.9Q24.23 14.02 24.12 14.12Q24.02 14.23 23.9 14.32Q23.79 14.41 23.67 14.49Q23.54 14.58 23.41 14.65Q23.28 14.72 23.15 14.77Q23.01 14.83 22.87 14.87Q22.73 14.91 22.59 14.94Q22.44 14.97 22.29 14.99Q22.15 15 22 15L3 15Q2.85 15 2.71 14.99Q2.56 14.97 2.41 14.94Q2.27 14.91 2.13 14.87Q1.99 14.83 1.85 14.77Q1.72 14.72 1.59 14.65Q1.46 14.58 1.33 14.49Q1.21 14.41 1.1 14.32Q0.9829 14.23 0.8787 14.12Q0.7745 14.02 0.681 13.9Q0.5875 13.79 0.5056 13.67Q0.4237 13.54 0.3542 13.41Q0.2848 13.28 0.2284 13.15Q0.172 13.01 0.1292 12.87Q0.0864 12.73 0.05764 12.59Q0.02889 12.44 0.01445 12.29Q0 12.15 0 12Z" /><clipPath id="analyses-setup-dark_cl_cb3"><rect x="60" y="187" width="17" height="13" /></clipPath><g clip-path="url(#analyses-setup-dark_cl_cb3)"><text fill="white" fill-opacity="0.8" transform="translate(60 187)" font-size="10" font-weight="600" font-family="Inter" x="0, 6.49, " y="9.69, ">
															SW
													</text></g><clipPath id="analyses-setup-dark_cl_cb4"><rect x="87" y="179" width="18" height="15" /></clipPath><g clip-path="url(#analyses-setup-dark_cl_cb4)"><text fill="white" transform="translate(87 179)" font-size="12" font-family="Inter" x="0, 7.62, 10.47, " y="11.63, ">
															Pin
													</text></g><clipPath id="analyses-setup-dark_cl_cb5"><rect x="87" y="195" width="72" height="13" /></clipPath><g clip-path="url(#analyses-setup-dark_cl_cb5)"><text fill="white" fill-opacity="0.6" transform="translate(87 195)" font-size="10" font-family="Inter" x="0, 6.42, 12.5, 15.31, 21.41, 24.94, 30.17, 32.93, 35.74, 40.34, 44.99, 50.98, 58.92, 65.28, " y="9.69, ">
															45 pts: -10…34
													</text></g></g></g><clipPath id="analyses-setup-dark_cl_cb6"><rect x="6" y="358" width="131" height="13" /></clipPath><g clip-path="url(#analyses-setup-dark_cl_cb6)"><text fill="white" fill-opacity="0.4" transform="translate(6 358)" font-size="10" font-family="Inter" x="0, 6.76, 12.61, 18.25, 20.63, 26.19, 31.42, 37.24, 42.47, 45.28, 49.01, 54.82, 60.67, 63.48, 65.85, 71.7, 74.52, 76.89, 79.26, 84.49, 88.07, 93.89, 100.1, 102.91, 108.88, 112.43, 118.64, 124.46, 127.56, " y="9.69, ">
										Analyses run in listed order.
								</text></g></g></g><clipPath id="analyses-setup-dark_cl_cb7"><rect x="434" y="383" width="74" height="29" /></clipPath><g clip-path="url(#analyses-setup-dark_cl_cb7)"><path fill="white" fill-opacity="0.2" transform="translate(434 383)" d="M0.5 25.5L0.5 3.5Q0.5 3.35 0.5144 3.21Q0.5289 3.06 0.5576 2.91Q0.5864 2.77 0.6292 2.63Q0.672 2.49 0.7284 2.35Q0.7848 2.22 0.8542 2.09Q0.9237 1.96 1.01 1.83Q1.09 1.71 1.18 1.6Q1.27 1.48 1.38 1.38Q1.48 1.27 1.6 1.18Q1.71 1.09 1.83 1.01Q1.96 0.9237 2.09 0.8542Q2.22 0.7848 2.35 0.7284Q2.49 0.672 2.63 0.6292Q2.77 0.5864 2.91 0.5576Q3.06 0.5289 3.21 0.5144Q3.35 0.5 3.5 0.5L70.5 0.5Q70.65 0.5 70.79 0.5144Q70.94 0.5289 71.09 0.5576Q71.23 0.5864 71.37 0.6292Q71.51 0.672 71.65 0.7284Q71.78 0.7848 71.91 0.8542Q72.04 0.9237 72.17 1.01Q72.29 1.09 72.4 1.18Q72.52 1.27 72.62 1.38Q72.73 1.48 72.82 1.6Q72.91 1.71 72.99 1.83Q73.08 1.96 73.15 2.09Q73.22 2.22 73.27 2.35Q73.33 2.49 73.37 2.63Q73.41 2.77 73.44 2.91Q73.47 3.06 73.49 3.21Q73.5 3.35 73.5 3.5L73.5 25.5Q73.5 25.65 73.49 25.79Q73.47 25.94 73.44 26.09Q73.41 26.23 73.37 26.37Q73.33 26.51 73.27 26.65Q73.22 26.78 73.15 26.91Q73.08 27.04 72.99 27.17Q72.91 27.29 72.82 27.4Q72.73 27.52 72.62 27.62Q72.52 27.73 72.4 27.82Q72.29 27.91 72.17 27.99Q72.04 28.08 71.91 28.15Q71.78 28.22 71.65 28.27Q71.51 28.33 71.37 28.37Q71.23 28.41 71.09 28.44Q70.94 28.47 70.79 28.49Q70.65 28.5 70.5 28.5L3.5 28.5Q3.35 28.5 3.21 28.49Q3.06 28.47 2.91 28.44Q2.77 28.41 2.63 28.37Q2.49 28.33 2.35 28.27Q2.22 28.22 2.09 28.15Q1.96 28.08 1.83 27.99Q1.71 27.91 1.6 27.82Q1.48 27.73 1.38 27.62Q1.27 27.52 1.18 27.4Q1.09 27.29 1.01 27.17Q0.9237 27.04 0.8542 26.91Q0.7848 26.78 0.7284 26.65Q0.672 26.51 0.6292 26.37Q0.5864 26.23 0.5576 26.09Q0.5289 25.94 0.5144 25.79Q0.5 25.65 0.5 25.5Z" /><clipPath id="analyses-setup-dark_cl_cb8"><rect x="455" y="390" width="32" height="15" /></clipPath><g clip-path="url(#analyses-setup-dark_cl_cb8)"><text fill="white" transform="translate(455 390)" font-size="12" font-family="Inter" x="0, 8.73, 11.57, 18.73, 25.01, " y="11.63, ">
								Close
						</text></g></g></g></svg>
