<!-- GENERATED FILE - do not edit. Regenerate every figure and page with:
     dotnet run ––project tools/DocGen –– ––out docs/user
     (the flags above are ordinary double hyphens; XML comments cannot contain them.)
     Source: src/Ui/Diagnostics/UiArtworkGenerator.cs + tools/DocGen. -->
<svg xmlns="http://www.w3.org/2000/svg" xmlns:xlink="http://www.w3.org/1999/xlink" width="30" height="24" viewBox="0 0 30 24"><rect fill="white" width="30" height="24" /><rect fill="#F6F8FA" width="30" height="24" /><path fill="#010101" fill-opacity="0.2" d="M0.5 20.5L0.5 3.5Q0.5 3.35 0.5144 3.21Q0.5289 3.06 0.5576 2.91Q0.5864 2.77 0.6292 2.63Q0.672 2.49 0.7284 2.35Q0.7848 2.22 0.8542 2.09Q0.9237 1.96 1.01 1.83Q1.09 1.71 1.18 1.6Q1.27 1.48 1.38 1.38Q1.48 1.27 1.6 1.18Q1.71 1.09 1.83 1.01Q1.96 0.9237 2.09 0.8542Q2.22 0.7848 2.35 0.7284Q2.49 0.672 2.63 0.6292Q2.77 0.5864 2.91 0.5576Q3.06 0.5289 3.21 0.5144Q3.35 0.5 3.5 0.5L26.5 0.5Q26.65 0.5 26.79 0.5144Q26.94 0.5289 27.09 0.5576Q27.23 0.5864 27.37 0.6292Q27.51 0.672 27.65 0.7284Q27.78 0.7848 27.91 0.8542Q28.04 0.9237 28.17 1.01Q28.29 1.09 28.4 1.18Q28.52 1.27 28.62 1.38Q28.73 1.48 28.82 1.6Q28.91 1.71 28.99 1.83Q29.08 1.96 29.15 2.09Q29.22 2.22 29.27 2.35Q29.33 2.49 29.37 2.63Q29.41 2.77 29.44 2.91Q29.47 3.06 29.49 3.21Q29.5 3.35 29.5 3.5L29.5 20.5Q29.5 20.65 29.49 20.79Q29.47 20.94 29.44 21.09Q29.41 21.23 29.37 21.37Q29.33 21.51 29.27 21.65Q29.22 21.78 29.15 21.91Q29.08 22.04 28.99 22.17Q28.91 22.29 28.82 22.4Q28.73 22.52 28.62 22.62Q28.52 22.73 28.4 22.82Q28.29 22.91 28.17 22.99Q28.04 23.08 27.91 23.15Q27.78 23.22 27.65 23.27Q27.51 23.33 27.37 23.37Q27.23 23.41 27.09 23.44Q26.94 23.47 26.79 23.49Q26.65 23.5 26.5 23.5L3.5 23.5Q3.35 23.5 3.21 23.49Q3.06 23.47 2.91 23.44Q2.77 23.41 2.63 23.37Q2.49 23.33 2.35 23.27Q2.22 23.22 2.09 23.15Q1.96 23.08 1.83 22.99Q1.71 22.91 1.6 22.82Q1.48 22.73 1.38 22.62Q1.27 22.52 1.18 22.4Q1.09 22.29 1.01 22.17Q0.9237 22.04 0.8542 21.91Q0.7848 21.78 0.7284 21.65Q0.672 21.51 0.6292 21.37Q0.5864 21.23 0.5576 21.09Q0.5289 20.94 0.5144 20.79Q0.5 20.65 0.5 20.5Z" /><path fill="none" stroke="#373737" stroke-width="1" stroke-linecap="round" stroke-linejoin="round" transform="translate(7 4)" d="M8 1.92L8 4.66" /><path fill="none" stroke="#373737" stroke-width="1" stroke-linecap="round" stroke-linejoin="round" transform="translate(7 4)" d="M6.33 11.28L6.33 4.72Q6.33 4.68 6.34 4.65Q6.34 4.61 6.36 4.58Q6.37 4.54 6.39 4.51Q6.41 4.48 6.43 4.46Q6.46 4.43 6.49 4.41Q6.52 4.39 6.55 4.38Q6.59 4.37 6.62 4.36Q6.66 4.35 6.69 4.35L9.31 4.35Q9.34 4.35 9.38 4.36Q9.41 4.37 9.45 4.38Q9.48 4.39 9.51 4.41Q9.54 4.43 9.57 4.46Q9.59 4.48 9.61 4.51Q9.63 4.54 9.64 4.58Q9.66 4.61 9.66 4.65Q9.67 4.68 9.67 4.72L9.67 11.28Q9.67 11.32 9.66 11.35Q9.66 11.39 9.64 11.42Q9.63 11.46 9.61 11.49Q9.59 11.52 9.57 11.54Q9.54 11.57 9.51 11.59Q9.48 11.61 9.45 11.62Q9.41 11.63 9.38 11.64Q9.34 11.65 9.31 11.65L6.69 11.65Q6.66 11.65 6.62 11.64Q6.59 11.63 6.55 11.62Q6.52 11.61 6.49 11.59Q6.46 11.57 6.43 11.54Q6.41 11.52 6.39 11.49Q6.37 11.46 6.36 11.42Q6.34 11.39 6.34 11.35Q6.33 11.32 6.33 11.28Z" /><path fill="none" stroke="#373737" stroke-width="1" stroke-linecap="round" stroke-linejoin="round" transform="translate(7 4)" d="M8 4.66L8 5.57L8.76 6.02L7.24 6.94L8.76 7.85L7.24 8.76L8.76 9.67L7.24 10.43L8 10.89L8 11.65" /><path fill="none" stroke="#373737" stroke-width="1" stroke-linecap="round" stroke-linejoin="round" transform="translate(7 4)" d="M8 11.65L8 14.08" /><text fill="#373737" transform="translate(12.87 6.98)" font-size="1.09" font-family="IBM Plex Sans" x="-0.3283, " y="0.4104, ">
						+
				</text><text fill="#373737" transform="translate(12.87 17.02)" font-size="1.09" font-family="IBM Plex Sans" x="-0.3283, " y="0.4104, ">
						−
				</text></svg>
