<!-- GENERATED FILE - do not edit. Regenerate every figure and page with:
     dotnet run ––project tools/DocGen –– ––out docs/user
     (the flags above are ordinary double hyphens; XML comments cannot contain them.)
     Source: src/Ui/Diagnostics/UiArtworkGenerator.cs + tools/DocGen. -->
<svg xmlns="http://www.w3.org/2000/svg" xmlns:xlink="http://www.w3.org/1999/xlink" width="28" height="24" viewBox="0 0 28 24"><rect fill="white" width="28" height="24" /><rect fill="#F6F8FA" width="28" height="24" /><clipPath id="toolbar-wbond-btn-24_cl_348b"><rect x="6" y="4" width="16" height="16" /></clipPath><g clip-path="url(#toolbar-wbond-btn-24_cl_348b)"><path fill="#010101" transform="matrix(0.6667 0 0 0.6667 6 4)" d="M19 19L5 19L5 5L19 5M19 3L5 3Q4.9 3 4.8 3.01Q4.71 3.02 4.61 3.04Q4.51 3.06 4.42 3.09Q4.33 3.11 4.23 3.15Q4.14 3.19 4.06 3.24Q3.97 3.28 3.89 3.34Q3.81 3.39 3.73 3.45Q3.66 3.52 3.59 3.59Q3.52 3.66 3.45 3.73Q3.39 3.81 3.34 3.89Q3.28 3.97 3.24 4.06Q3.19 4.14 3.15 4.23Q3.11 4.33 3.09 4.42Q3.06 4.51 3.04 4.61Q3.02 4.71 3.01 4.8Q3 4.9 3 5L3 19Q3 19.1 3.01 19.2Q3.02 19.29 3.04 19.39Q3.06 19.49 3.09 19.58Q3.11 19.67 3.15 19.77Q3.19 19.86 3.24 19.94Q3.28 20.03 3.34 20.11Q3.39 20.19 3.45 20.27Q3.52 20.34 3.59 20.41Q3.66 20.48 3.73 20.55Q3.81 20.61 3.89 20.66Q3.97 20.72 4.06 20.76Q4.14 20.81 4.23 20.85Q4.33 20.89 4.42 20.91Q4.51 20.94 4.61 20.96Q4.71 20.98 4.8 20.99Q4.9 21 5 21L19 21Q19.1 21 19.2 20.99Q19.29 20.98 19.39 20.96Q19.49 20.94 19.58 20.91Q19.67 20.89 19.77 20.85Q19.86 20.81 19.94 20.76Q20.03 20.72 20.11 20.66Q20.19 20.61 20.27 20.55Q20.34 20.48 20.41 20.41Q20.48 20.34 20.55 20.27Q20.61 20.19 20.66 20.11Q20.72 20.03 20.76 19.94Q20.81 19.86 20.85 19.77Q20.89 19.67 20.91 19.58Q20.94 19.49 20.96 19.39Q20.98 19.29 20.99 19.2Q21 19.1 21 19L21 5Q21 4.9 20.99 4.8Q20.98 4.71 20.96 4.61Q20.94 4.51 20.91 4.42Q20.89 4.33 20.85 4.23Q20.81 4.14 20.76 4.06Q20.72 3.97 20.66 3.89Q20.61 3.81 20.55 3.73Q20.48 3.66 20.41 3.59Q20.34 3.52 20.27 3.45Q20.19 3.39 20.11 3.34Q20.03 3.28 19.94 3.24Q19.86 3.19 19.77 3.15Q19.67 3.11 19.58 3.09Q19.49 3.06 19.39 3.04Q19.29 3.02 19.2 3.01Q19.1 3 19 3M13.96 12.29L11.21 15.83L9.25 13.47L6.5 17L17.5 17L13.96 12.29Z" fill-rule="evenodd" /></g></svg>
