<!-- GENERATED FILE - do not edit. Regenerate every component symbol with:
     dotnet run ––project src/Ui –– ––generate-symbols docs/user/assets/symbols
     (the flags above are ordinary double hyphens; XML comments cannot contain them.)
     Source: src/Ui/Diagnostics/SymbolArtworkGenerator.cs -->
<svg xmlns="http://www.w3.org/2000/svg" xmlns:xlink="http://www.w3.org/1999/xlink" width="240" height="186" viewBox="0 0 240 186"><path fill="none" stroke="#9684FA" stroke-width="1" stroke-linecap="round" stroke-linejoin="round" d="M95.48 75L124.9 75" /><path fill="none" stroke="#9684FA" stroke-width="1" stroke-linecap="round" stroke-linejoin="round" d="M124.9 48.03L124.9 101.97" /><path fill="none" stroke="#9684FA" stroke-width="1" stroke-linecap="round" stroke-linejoin="round" d="M137.16 48.03L137.16 60.29" /><path fill="none" stroke="#9684FA" stroke-width="1" stroke-linecap="round" stroke-linejoin="round" d="M137.16 68.87L137.16 81.13" /><path fill="none" stroke="#9684FA" stroke-width="1" stroke-linecap="round" stroke-linejoin="round" d="M137.16 89.71L137.16 101.97" /><path fill="none" stroke="#9684FA" stroke-width="1" stroke-linecap="round" stroke-linejoin="round" d="M137.16 54.16L144.52 54.16" /><path fill="none" stroke="#9684FA" stroke-width="1" stroke-linecap="round" stroke-linejoin="round" d="M144.52 54.16L144.52 25.96" /><path fill="none" stroke="#9684FA" stroke-width="1" stroke-linecap="round" stroke-linejoin="round" d="M137.16 95.84L144.52 95.84" /><path fill="none" stroke="#9684FA" stroke-width="1" stroke-linecap="round" stroke-linejoin="round" d="M144.52 95.84L144.52 124.04" /><path fill="#9684FA" d="M137.16 92.9L142.07 92.9L139.13 98.78L137.16 92.9Z" /><rect fill="none" stroke="#F07846" stroke-width="1" stroke-miterlimit="4" x="141.52" y="22.96" width="6" height="6" /><rect fill="none" stroke="#F07846" stroke-width="1" stroke-miterlimit="4" x="92.48" y="72" width="6" height="6" /><rect fill="none" stroke="#F07846" stroke-width="1" stroke-miterlimit="4" x="141.52" y="121.04" width="6" height="6" /><text fill="#8CAEFF" font-size="15" font-weight="600" font-family="IBM Plex Sans" x="97.36, 106.97, 113.32, 124, 133.94" y="172.32">
			PIGBT
	</text></svg>
