<?xml version="1.0" encoding="utf-8" ?>
<svg xmlns="http://www.w3.org/2000/svg" xmlns:xlink="http://www.w3.org/1999/xlink" width="240" height="186">
	<path fill="none" stroke="#2D14C3" stroke-width="1.4400001" stroke-linecap="round" stroke-linejoin="round" d="M24 75L76.8 75"/>
	<path fill="none" stroke="#2D14C3" stroke-width="1.4400001" stroke-linecap="round" stroke-linejoin="round" d="M163.2 75L216 75"/>
	<path fill="none" stroke="#2D14C3" stroke-width="1.4400001" stroke-linecap="round" stroke-linejoin="round" d="M76.8 87.96L76.8 62.04Q76.8 61.8279 76.8104 61.6161Q76.8208 61.4042 76.8416 61.1931Q76.8624 60.9821 76.8935 60.7722Q76.9246 60.5624 76.966 60.3544Q77.0074 60.1464 77.0589 59.9406Q77.1105 59.7349 77.172 59.5319Q77.2336 59.329 77.3051 59.1293Q77.3765 58.9296 77.4577 58.7336Q77.5388 58.5377 77.6295 58.3459Q77.7202 58.1542 77.8202 57.9671Q77.9202 57.7801 78.0292 57.5982Q78.1383 57.4162 78.2561 57.2399Q78.3739 57.0635 78.5003 56.8932Q78.6266 56.7228 78.7612 56.5588Q78.8957 56.3949 79.0382 56.2377Q79.1806 56.0806 79.3306 55.9306Q79.4806 55.7806 79.6377 55.6382Q79.7949 55.4957 79.9588 55.3612Q80.1228 55.2266 80.2931 55.1003Q80.4635 54.9739 80.6399 54.8561Q80.8162 54.7383 80.9981 54.6292Q81.1801 54.5202 81.3671 54.4202Q81.5542 54.3202 81.7459 54.2295Q81.9377 54.1388 82.1336 54.0577Q82.3296 53.9765 82.5293 53.9051Q82.729 53.8336 82.9319 53.772Q83.1349 53.7105 83.3406 53.6589Q83.5464 53.6074 83.7544 53.566Q83.9624 53.5246 84.1722 53.4935Q84.382 53.4624 84.5931 53.4416Q84.8042 53.4208 85.0161 53.4104Q85.2279 53.4 85.44 53.4L154.56 53.4Q154.772 53.4 154.984 53.4104Q155.196 53.4208 155.407 53.4416Q155.618 53.4624 155.828 53.4935Q156.038 53.5246 156.246 53.566Q156.454 53.6074 156.659 53.6589Q156.865 53.7105 157.068 53.772Q157.271 53.8336 157.471 53.9051Q157.67 53.9765 157.866 54.0577Q158.062 54.1388 158.254 54.2295Q158.446 54.3202 158.633 54.4202Q158.82 54.5202 159.002 54.6292Q159.184 54.7383 159.36 54.8561Q159.536 54.9739 159.707 55.1003Q159.877 55.2266 160.041 55.3612Q160.205 55.4957 160.362 55.6382Q160.519 55.7806 160.669 55.9306Q160.819 56.0806 160.962 56.2377Q161.104 56.3949 161.239 56.5588Q161.373 56.7228 161.5 56.8932Q161.626 57.0635 161.744 57.2399Q161.862 57.4162 161.971 57.5981Q162.08 57.7801 162.18 57.9671Q162.28 58.1542 162.37 58.3459Q162.461 58.5377 162.542 58.7336Q162.623 58.9296 162.695 59.1293Q162.766 59.329 162.828 59.5319Q162.89 59.7349 162.941 59.9406Q162.993 60.1464 163.034 60.3544Q163.075 60.5624 163.106 60.7722Q163.138 60.9821 163.158 61.1931Q163.179 61.4042 163.19 61.6161Q163.2 61.8279 163.2 62.04L163.2 87.96Q163.2 88.1721 163.19 88.3839Q163.179 88.5958 163.158 88.8069Q163.138 89.0179 163.106 89.2277Q163.075 89.4375 163.034 89.6456Q162.993 89.8536 162.941 90.0593Q162.89 90.2651 162.828 90.4681Q162.766 90.671 162.695 90.8707Q162.623 91.0704 162.542 91.2664Q162.461 91.4623 162.37 91.6541Q162.28 91.8458 162.18 92.0329Q162.08 92.2199 161.971 92.4018Q161.862 92.5838 161.744 92.7601Q161.626 92.9365 161.5 93.1068Q161.373 93.2772 161.239 93.4412Q161.104 93.6051 160.962 93.7623Q160.819 93.9194 160.669 94.0694Q160.519 94.2194 160.362 94.3618Q160.205 94.5043 160.041 94.6388Q159.877 94.7734 159.707 94.8997Q159.536 95.0261 159.36 95.1439Q159.184 95.2617 159.002 95.3708Q158.82 95.4798 158.633 95.5798Q158.446 95.6798 158.254 95.7705Q158.062 95.8611 157.866 95.9423Q157.67 96.0235 157.471 96.0949Q157.271 96.1664 157.068 96.228Q156.865 96.2895 156.659 96.3411Q156.454 96.3926 156.246 96.434Q156.038 96.4754 155.828 96.5065Q155.618 96.5376 155.407 96.5584Q155.196 96.5792 154.984 96.5896Q154.772 96.6 154.56 96.6L85.44 96.6Q85.2279 96.6 85.0161 96.5896Q84.8042 96.5792 84.5931 96.5584Q84.382 96.5376 84.1722 96.5065Q83.9624 96.4754 83.7544 96.434Q83.5464 96.3926 83.3406 96.3411Q83.1349 96.2895 82.9319 96.228Q82.729 96.1664 82.5293 96.0949Q82.3296 96.0235 82.1336 95.9423Q81.9377 95.8611 81.7459 95.7705Q81.5542 95.6798 81.3671 95.5798Q81.1801 95.4798 80.9981 95.3708Q80.8162 95.2617 80.6399 95.1439Q80.4635 95.0261 80.2931 94.8997Q80.1228 94.7734 79.9588 94.6388Q79.7949 94.5043 79.6377 94.3618Q79.4806 94.2194 79.3306 94.0694Q79.1806 93.9194 79.0382 93.7623Q78.8957 93.6051 78.7612 93.4412Q78.6266 93.2772 78.5003 93.1068Q78.3739 92.9365 78.2561 92.7601Q78.1383 92.5838 78.0292 92.4018Q77.9202 92.2199 77.8202 92.0329Q77.7202 91.8458 77.6295 91.6541Q77.5388 91.4623 77.4577 91.2664Q77.3765 91.0704 77.305 90.8707Q77.2336 90.671 77.172 90.4681Q77.1105 90.2651 77.0589 90.0593Q77.0074 89.8536 76.966 89.6456Q76.9246 89.4376 76.8935 89.2277Q76.8624 89.0179 76.8416 88.8069Q76.8208 88.5958 76.8104 88.3839Q76.8 88.1721 76.8 87.96Z"/>
	<path fill="none" stroke="#2D14C3" stroke-width="1.4400001" stroke-linecap="round" stroke-linejoin="round" d="M91.2 75L148.8 75"/>
	<text fill="#6A8EF6" font-size="15" font-weight="500" font-family="IBM Plex Sans SemiBold, IBM Plex Sans" x="103.17751, 111.8775, 119.6925, 126.03751, " y="172.32001, ">
			TLIN
	</text>
</svg>
